<mxfile host="65bd71144e">
    <diagram id="R2lEEEUBdFMjLlhIrx00" name="Page-1">
        <mxGraphModel dx="2191" dy="2022" grid="1" gridSize="10" guides="1" tooltips="1" connect="1" arrows="1" fold="1" page="1" pageScale="1" pageWidth="850" pageHeight="1100" math="0" shadow="0" extFonts="Permanent Marker^https://fonts.googleapis.com/css?family=Permanent+Marker">
            <root>
                <mxCell id="0"/>
                <mxCell id="1" parent="0"/>
                <mxCell id="pDtJqAfcPCYP6tU8S-Co-5" value="&lt;b&gt;&lt;font style=&quot;font-size: 32px ; background-color: rgb(255 , 235 , 235)&quot; face=&quot;Courier New&quot;&gt;Structs.sh Data Models&lt;/font&gt;&lt;/b&gt;" style="text;html=1;align=center;verticalAlign=middle;resizable=0;points=[];autosize=1;strokeColor=none;fontFamily=Helvetica;" parent="1" vertex="1">
                    <mxGeometry x="-15" y="-60" width="440" height="20" as="geometry"/>
                </mxCell>
                <mxCell id="pDtJqAfcPCYP6tU8S-Co-45" value="Lesson" style="swimlane;childLayout=stackLayout;horizontal=1;startSize=30;horizontalStack=0;rounded=1;fontSize=14;fontStyle=0;strokeWidth=2;resizeParent=0;resizeLast=1;shadow=0;dashed=0;align=center;fontFamily=Helvetica;fillColor=#dae8fc;strokeColor=#6c8ebf;whiteSpace=wrap;" parent="1" vertex="1">
                    <mxGeometry x="72.5" y="400" width="270" height="300" as="geometry"/>
                </mxCell>
                <mxCell id="pDtJqAfcPCYP6tU8S-Co-46" value="&lt;b&gt;topicId&amp;nbsp;&lt;/b&gt;(&lt;u&gt;string&lt;/u&gt;)&lt;br&gt;ID of the topic that this lesson belongs to.&lt;b&gt;&lt;br&gt;&lt;br&gt;title&lt;/b&gt;&amp;nbsp;(&lt;u&gt;string&lt;/u&gt;)&lt;br&gt;Title of the lesson.&lt;br&gt;&lt;br&gt;&lt;b&gt;rawMarkdown&lt;/b&gt; (&lt;u&gt;string&lt;/u&gt;)&lt;br&gt;&lt;span&gt; &lt;/span&gt;The raw markdown source code used to&amp;nbsp;&lt;br&gt;&lt;span&gt; &lt;/span&gt;display the content in this lesson.&lt;br&gt;&lt;br&gt;&lt;b&gt;creatorId&lt;/b&gt; (&lt;u&gt;string&lt;/u&gt;)&lt;br&gt;&lt;span&gt; &lt;/span&gt;The ID of the user who created this lesson.&lt;br&gt;&lt;br&gt;&lt;b&gt;quizzes&amp;nbsp;&lt;/b&gt;(&lt;span style=&quot;background-color: rgb(31 , 255 , 46)&quot;&gt;Quiz&lt;/span&gt;[ ])&lt;br&gt;&lt;span&gt;&lt;span&gt; &lt;/span&gt;An ordered array of quiz objects.&lt;br&gt;&lt;span&gt; &lt;/span&gt;These are used to construct quiz questions&lt;br&gt;&lt;span&gt; &lt;/span&gt;in the frontend.&lt;br&gt;&lt;/span&gt;" style="align=left;strokeColor=none;fillColor=none;spacingLeft=4;fontSize=12;verticalAlign=top;resizable=0;rotatable=0;part=1;fontStyle=0;html=1;" parent="pDtJqAfcPCYP6tU8S-Co-45" vertex="1">
                    <mxGeometry y="30" width="270" height="270" as="geometry"/>
                </mxCell>
                <mxCell id="pDtJqAfcPCYP6tU8S-Co-47" value="User" style="swimlane;childLayout=stackLayout;horizontal=1;startSize=30;horizontalStack=0;rounded=1;fontSize=14;fontStyle=0;strokeWidth=2;resizeParent=0;resizeLast=1;shadow=0;dashed=0;align=center;fontFamily=Helvetica;fillColor=#dae8fc;strokeColor=#6c8ebf;whiteSpace=wrap;html=1;" parent="1" vertex="1">
                    <mxGeometry x="-347.5" y="458" width="260" height="184" as="geometry"/>
                </mxCell>
                <mxCell id="pDtJqAfcPCYP6tU8S-Co-48" value="&lt;b&gt;username &lt;/b&gt;(&lt;u&gt;string&lt;/u&gt;)&lt;br&gt;A unique public-facing name.&lt;br&gt;&lt;br&gt;&lt;b&gt;email&lt;/b&gt; &lt;u&gt;(string)&lt;/u&gt;&lt;br&gt;The email address associated with this &lt;br&gt;user's account.&lt;br&gt;&lt;br&gt;&lt;b&gt;password&lt;/b&gt; &lt;u&gt;(string)&lt;/u&gt;&lt;br&gt;The encrypted/hashed password for this &lt;br&gt;account." style="align=left;strokeColor=none;fillColor=none;spacingLeft=4;fontSize=12;verticalAlign=top;resizable=0;rotatable=0;part=1;fontStyle=0;html=1;" parent="pDtJqAfcPCYP6tU8S-Co-47" vertex="1">
                    <mxGeometry y="30" width="260" height="154" as="geometry"/>
                </mxCell>
                <mxCell id="pDtJqAfcPCYP6tU8S-Co-49" value="Quiz" style="swimlane;childLayout=stackLayout;horizontal=1;startSize=30;horizontalStack=0;rounded=1;fontSize=14;fontStyle=0;strokeWidth=2;resizeParent=0;resizeLast=1;shadow=0;dashed=0;align=center;fontFamily=Helvetica;fillColor=#dae8fc;strokeColor=#6c8ebf;whiteSpace=wrap;" parent="1" vertex="1">
                    <mxGeometry x="497.5" y="448" width="260" height="205" as="geometry"/>
                </mxCell>
                <mxCell id="pDtJqAfcPCYP6tU8S-Co-50" value="&lt;b&gt;questionType &lt;/b&gt;(&lt;u&gt;string&lt;/u&gt;)&lt;br&gt;&lt;span style=&quot;white-space: pre&quot;&gt; &lt;/span&gt;The type of the quiz. Eg. 'mc' for multiple&lt;br&gt;&lt;span style=&quot;white-space: pre&quot;&gt; &lt;/span&gt;choice, 'qa' for question-answer&lt;br&gt;&lt;br&gt;&lt;b&gt;question&lt;/b&gt; (&lt;u&gt;string&lt;/u&gt;)&lt;br&gt;&lt;span style=&quot;white-space: pre&quot;&gt; &lt;/span&gt;The stringified JSON for the quiz details.&lt;br&gt;&lt;br&gt;&lt;b&gt;answer&lt;/b&gt; (&lt;u&gt;string&lt;/u&gt;)&lt;br&gt;&lt;span style=&quot;white-space: pre&quot;&gt; &lt;/span&gt;The stringified JSON for the quiz answers." style="align=left;strokeColor=none;fillColor=none;spacingLeft=4;fontSize=12;verticalAlign=top;resizable=0;rotatable=0;part=1;fontStyle=0;html=1;" parent="pDtJqAfcPCYP6tU8S-Co-49" vertex="1">
                    <mxGeometry y="30" width="260" height="175" as="geometry"/>
                </mxCell>
                <mxCell id="8" value="" style="edgeStyle=none;html=1;" parent="1" source="pDtJqAfcPCYP6tU8S-Co-52" target="pDtJqAfcPCYP6tU8S-Co-46" edge="1">
                    <mxGeometry relative="1" as="geometry"/>
                </mxCell>
                <mxCell id="pDtJqAfcPCYP6tU8S-Co-52" value="&lt;font color=&quot;#8c8c8c&quot; style=&quot;font-size: 8px&quot;&gt;Note: this arrow indicates that 'a &lt;br&gt;lesson has 0 or many&amp;nbsp;quizzes'.&lt;/font&gt;" style="text;html=1;align=center;verticalAlign=middle;resizable=0;points=[];autosize=1;strokeColor=none;fontFamily=Helvetica;" parent="1" vertex="1">
                    <mxGeometry x="352.5" y="505" width="130" height="30" as="geometry"/>
                </mxCell>
                <mxCell id="pDtJqAfcPCYP6tU8S-Co-54" value="" style="edgeStyle=entityRelationEdgeStyle;fontSize=12;html=1;endArrow=ERzeroToMany;endFill=1;fontFamily=Helvetica;exitX=1;exitY=0.5;exitDx=0;exitDy=0;entryX=0;entryY=0.5;entryDx=0;entryDy=0;" parent="1" source="pDtJqAfcPCYP6tU8S-Co-46" target="pDtJqAfcPCYP6tU8S-Co-50" edge="1">
                    <mxGeometry width="100" height="100" relative="1" as="geometry">
                        <mxPoint x="402.5" y="670" as="sourcePoint"/>
                        <mxPoint x="502.5" y="570" as="targetPoint"/>
                    </mxGeometry>
                </mxCell>
                <mxCell id="pDtJqAfcPCYP6tU8S-Co-56" value="&lt;font color=&quot;#8c8c8c&quot; style=&quot;font-size: 8px&quot;&gt;Note: this arrow indicates that a user&amp;nbsp;&lt;br&gt;may be the author of 0 or more lessons&lt;br&gt;&lt;/font&gt;" style="text;html=1;align=center;verticalAlign=middle;resizable=0;points=[];autosize=1;strokeColor=none;fontFamily=Helvetica;" parent="1" vertex="1">
                    <mxGeometry x="-87.5" y="500" width="150" height="40" as="geometry"/>
                </mxCell>
                <mxCell id="pDtJqAfcPCYP6tU8S-Co-57" value="" style="edgeStyle=entityRelationEdgeStyle;fontSize=12;html=1;endArrow=ERzeroToMany;endFill=1;fontFamily=Helvetica;exitX=1;exitY=0.5;exitDx=0;exitDy=0;entryX=0;entryY=0.5;entryDx=0;entryDy=0;" parent="1" source="pDtJqAfcPCYP6tU8S-Co-48" target="pDtJqAfcPCYP6tU8S-Co-46" edge="1">
                    <mxGeometry width="100" height="100" relative="1" as="geometry">
                        <mxPoint x="-147.5" y="659.9999999999999" as="sourcePoint"/>
                        <mxPoint x="32.5" y="659.9999999999999" as="targetPoint"/>
                    </mxGeometry>
                </mxCell>
                <mxCell id="3gnUhOIzBem_3RRkfq2S-1" value="Topic" style="swimlane;childLayout=stackLayout;horizontal=1;startSize=30;horizontalStack=0;rounded=1;fontSize=14;fontStyle=0;strokeWidth=2;resizeParent=0;resizeLast=1;shadow=0;dashed=0;align=center;fontFamily=Helvetica;fillColor=#dae8fc;strokeColor=#6c8ebf;whiteSpace=wrap;" parent="1" vertex="1">
                    <mxGeometry x="70" width="270" height="340" as="geometry"/>
                </mxCell>
                <mxCell id="3gnUhOIzBem_3RRkfq2S-2" value="&lt;span style=&quot;white-space: pre&quot;&gt;&lt;b&gt;title &lt;/b&gt;(&lt;u&gt;string&lt;/u&gt;)&lt;b&gt;&lt;br&gt;&lt;/b&gt;Name of the topic. Eg. 'Linked lists'&lt;b&gt;&lt;br&gt;&lt;br&gt;description&lt;/b&gt; (&lt;u&gt;string&lt;/u&gt;)&lt;br&gt;Description of the topic. Eg. 'A linear collection&lt;br&gt;of data elements.'&lt;br&gt;&lt;br&gt;&lt;b&gt;courses&lt;/b&gt; (&lt;u&gt;string[]&lt;/u&gt;)&lt;br&gt;The courses that this topic belongs to.&lt;br&gt;Eg. [&quot;COMP1511&quot;, &quot;COMP2521&quot;]&lt;br&gt;&lt;br&gt;&lt;b&gt;videos&lt;/b&gt; (string[])&lt;br&gt;List of URLs to videos to publicly show&lt;br&gt;&lt;br&gt;&lt;b&gt;sourceCodeIds&lt;/b&gt; (SourceCode[ ])&lt;br&gt;List of IDs to source code snippets for algorithms&lt;br&gt;related to this topic.&lt;br&gt;&lt;br&gt;&lt;b&gt;image&lt;/b&gt; (string)&lt;br&gt;A URL for an image that the frontend displays&lt;br&gt;&lt;/span&gt;" style="align=left;strokeColor=none;fillColor=none;spacingLeft=4;fontSize=12;verticalAlign=top;resizable=0;rotatable=0;part=1;fontStyle=0;html=1;" parent="3gnUhOIzBem_3RRkfq2S-1" vertex="1">
                    <mxGeometry y="30" width="270" height="310" as="geometry"/>
                </mxCell>
                <mxCell id="3gnUhOIzBem_3RRkfq2S-3" style="edgeStyle=orthogonalEdgeStyle;rounded=0;orthogonalLoop=1;jettySize=auto;html=1;" parent="1" source="3gnUhOIzBem_3RRkfq2S-2" edge="1">
                    <mxGeometry relative="1" as="geometry">
                        <mxPoint x="205" y="397" as="targetPoint"/>
                    </mxGeometry>
                </mxCell>
                <mxCell id="7" style="edgeStyle=none;html=1;entryX=0;entryY=0.5;entryDx=0;entryDy=0;endArrow=ERzeroToMany;endFill=1;" parent="1" source="5" target="3gnUhOIzBem_3RRkfq2S-1" edge="1">
                    <mxGeometry relative="1" as="geometry"/>
                </mxCell>
                <mxCell id="5" value="SourceCode" style="swimlane;childLayout=stackLayout;horizontal=1;startSize=30;horizontalStack=0;rounded=1;fontSize=14;fontStyle=0;strokeWidth=2;resizeParent=0;resizeLast=1;shadow=0;dashed=0;align=center;fontFamily=Helvetica;fillColor=#dae8fc;strokeColor=#6c8ebf;whiteSpace=wrap;" parent="1" vertex="1">
                    <mxGeometry x="-270" y="90" width="270" height="160" as="geometry"/>
                </mxCell>
                <mxCell id="6" value="&lt;span style=&quot;white-space: pre&quot;&gt;&lt;b&gt;title &lt;/b&gt;(string)&lt;br&gt;Name for the code snippet. Eg. 'BST Insertion'&lt;b&gt;&lt;br&gt;&lt;/b&gt;&lt;br&gt;&lt;b&gt;code&lt;/b&gt; (string)&lt;br&gt;Raw code.&lt;br/&gt;&lt;br/&gt;topicId (string)&lt;br/&gt;Lesson this code snippet belongs to&lt;br&gt;&lt;/span&gt;" style="align=left;strokeColor=none;fillColor=none;spacingLeft=4;fontSize=12;verticalAlign=top;resizable=0;rotatable=0;part=1;fontStyle=0;html=1;" parent="5" vertex="1">
                    <mxGeometry y="30" width="270" height="130" as="geometry"/>
                </mxCell>
            </root>
        </mxGraphModel>
    </diagram>
</mxfile>